<?xml version="1.0" encoding="utf-8"?>
<!-- Generator: Adobe Illustrator 16.2.1, SVG Export Plug-In . SVG Version: 6.00 Build 0)  -->
<!DOCTYPE svg PUBLIC "-//W3C//DTD SVG 1.1//EN" "http://www.w3.org/Graphics/SVG/1.1/DTD/svg11.dtd">
<svg version="1.1" id="Layer_1" xmlns="http://www.w3.org/2000/svg" xmlns:xlink="http://www.w3.org/1999/xlink" x="0px" y="0px"
	 width="355.81px" height="332.691px" viewBox="0 0 355.81 332.691" enable-background="new 0 0 355.81 332.691"
	 xml:space="preserve">
<path fill="#FFFFFF" d="M112.274,171.044c-0.185-0.012-0.369-0.021-0.554-0.033c-0.184-1.193-0.282-2.406-0.567-3.575
	c-1-4.094-1.672-8.325-3.191-12.222c-2.458-6.303-8.871-9.625-16.293-9.102c-6.223,0.438-10.562,4.196-12.684,10.632
	c-0.372,1.127-1.708,1.936-2.6,2.892c-0.323-1.104-0.924-2.208-0.927-3.313c-0.048-19.58-0.033-39.16-0.011-58.74
	c0.013-11.955-7.346-19.146-19.276-18.795c-9.964,0.294-16.231,6.723-16.233,16.73c-0.01,45.825-0.002,91.65-0.002,137.476
	c0,1.666-0.062,3.334-0.001,5c0.053,1.443-0.474,2.049-1.994,2.172c-2.347,0.191-2.762-0.912-2.756-2.963
	c0.054-17.914,0.071-35.828-0.024-53.741c-0.016-2.878-0.382-5.812-1.034-8.616C31,161.39,15.523,160.163,7.932,165.639
	c-6.08,4.387-7.823,10.8-7.861,17.772c-0.106,19.746-0.085,39.494,0.005,59.24c0.023,5.074,0.202,10.182,0.858,15.201
	c0.363,2.773,1.385,5.721,2.935,8.037c9.488,14.186,19.066,28.314,28.922,42.246c4.576,6.467,6.903,13.34,6.54,21.219
	c-0.142,3.088,0.198,3.336,3.188,3.336c36.41,0.004,72.82,0,109.23-0.008c3.292,0,3.34-0.031,3.307-3.381
	c-0.07-7.061,1.363-13.691,5.221-19.732c3.021-4.73,7.173-8.271,11.581-11.588c3.226-2.428,5.15-5.453,5.121-9.707
	c-0.089-12.906-0.024-25.814-0.023-38.723c0.001-20.414,0.12-40.828-0.115-61.239c-0.041-3.528-0.994-7.327-2.553-10.495
	c-2.911-5.916-8.447-7.631-14.726-7.268c-6.845,0.396-11.806,3.611-14.614,9.949c-0.471,1.062-0.861,2.16-1.289,3.242
	c-1.172-4.004-1.744-7.868-2.625-11.662c-0.958-4.127-2.843-7.882-6.173-10.603c-6.523-5.332-16.654-2.636-20.681,5.395
	C113.497,168.238,112.908,169.652,112.274,171.044z M225.017,103.485c-0.236,1.419-0.437,2.034-0.426,2.646
	c0.217,12.667,2.332,24.992,6.87,36.845c8.384,21.9,23.099,38.938,41.392,53.069c23.779,18.371,51.406,28.316,80.045,35.943
	c2.066,0.551,2.924-0.141,2.912-2.301c-0.064-11.996-0.094-23.994-0.068-35.99c0.004-1.676-0.523-2.479-2.199-2.999
	c-10.154-3.149-20.33-6.243-30.379-9.702c-21.09-7.26-40.193-17.979-56.686-33.162c-13.447-12.38-25.622-25.947-37.498-39.802
	C227.822,106.683,226.644,105.351,225.017,103.485z M210.759,37.084c-0.233,0.4-0.466,0.8-0.699,1.199
	c0.879,0.598,1.818,1.123,2.627,1.804c6.964,5.865,13.486,12.146,18.439,19.876c6.949,10.844,11.659,22.789,16.923,34.461
	c8.485,18.816,19.208,35.994,36.173,48.436c16.434,12.052,34.723,17.626,55.168,14.958c2.795-0.365,5.523-1.24,8.908-2.024
	c-0.846-0.614-1.025-0.788-1.238-0.888c-0.525-0.249-1.055-0.507-1.607-0.687c-7.689-2.503-14.584-6.477-20.922-11.433
	c-13.871-10.85-23.623-24.939-31.414-40.492c-4.166-8.318-7.668-16.981-12.059-25.173c-6.266-11.695-14.787-21.482-26.329-28.415
	c-12.427-7.464-26.01-10.804-40.334-11.613C213.187,37.025,211.971,37.084,210.759,37.084z M188.331,206.21
	c0.104,0.213,0.209,0.428,0.312,0.643c10.167-0.463,19.09,3.143,27.566,8.23c12.601,7.564,23.33,17.416,33.676,27.705
	c13.66,13.588,29.614,22.678,48.864,25.529c14.773,2.189,29.219,1.123,43.209-4.346c2.09-0.816,4.047-1.98,6.064-2.984
	c-0.047-0.268-0.096-0.537-0.143-0.807c-3.631-1.074-7.252-2.18-10.891-3.223c-14.367-4.119-27.904-10.018-39.518-19.58
	c-8.412-6.928-16.684-14.064-24.582-21.568c-13.157-12.496-28.191-20.476-46.63-21.074c-12.81-0.414-24.755,2.519-35.603,9.491
	C189.808,204.772,189.103,205.543,188.331,206.21z M227.253,254.241c-0.307,0.174-0.614,0.348-0.922,0.52
	c0.965,3.131,1.691,6.357,2.932,9.373c9.6,23.348,26.699,39.461,49.17,50.143c15.121,7.188,31.24,10.953,47.871,12.223
	c8.951,0.684,17.965,0.527,26.949,0.752c1.418,0.037,2.453-0.291,2.451-2.031c-0.016-11.5-0.008-23,0.006-34.498
	c0-1.639-0.76-2.164-2.367-2.008c-2.816,0.273-5.648,0.402-8.477,0.562c-25.26,1.426-50.041-0.834-73.993-9.564
	c-12.994-4.736-25.003-11.277-36.093-19.518C232.214,258.288,229.76,256.231,227.253,254.241z M355.488,131.215
	c0.1-1.541,0.215-2.5,0.217-3.459c0.01-12.156-0.053-24.313,0.053-36.468c0.018-2.167-0.721-3.269-2.637-4.16
	c-10.281-4.783-18.836-11.786-26.111-20.456c-12.438-14.82-20.656-31.884-26.912-50.02c-0.293-0.849-0.783-1.63-1.182-2.442
	c-0.238,0.027-0.477,0.053-0.717,0.08c-0.84,2.833-1.74,5.648-2.51,8.5c-3.688,13.694-3.916,27.453-0.473,41.216
	c3.629,14.503,10.746,27.143,20.771,38.185c9.615,10.591,21.066,18.82,33.398,25.904
	C351.216,129.147,353.148,130.025,355.488,131.215z M88.352,45.722c-0.636-16.579-14.42-29.368-30.897-28.668
	c-15.5,0.659-28.256,14.616-27.801,30.27c0.448,15.4,12.989,29.924,31.413,28.771C76.949,75.102,88.839,61.414,88.352,45.722z
	 M74.887,84.436c1.134,2.545,2.31,4.418,2.778,6.454c0.447,1.947,1.389,2.305,3.105,2.291c7.081-0.059,14.162-0.023,21.244-0.031
	c3.501-0.003,3.521-0.012,3.521-3.429c0.002-28.742-0.001-57.484-0.011-86.226c-0.001-3.484-0.021-3.494-3.47-3.495
	c-28.659-0.001-57.317,0-85.977,0.004c-3.545,0-3.552,0.006-3.552,3.664c-0.001,27.493,0,54.985,0.001,82.478
	c0,1.583,0.02,3.166,0,4.749c-0.019,1.495,0.513,2.317,2.185,2.306c6.832-0.044,13.663,0.012,20.494-0.06
	c0.693-0.007,1.77-0.453,2-0.985c1.005-2.318,1.763-4.743,2.719-7.434c-1.184-0.106-2.219-0.271-3.255-0.28
	c-4.082-0.032-8.17-0.142-12.245,0.032c-2.459,0.104-3.077-0.791-3.069-3.158c0.083-23.077,0.101-46.154,0-69.23
	c-0.012-2.623,0.869-3.201,3.276-3.194c22.993,0.065,45.987,0.067,68.98-0.012c2.432-0.008,3.083,0.778,3.071,3.156
	c-0.089,18.745-0.051,37.49-0.052,56.234c0,4.333-0.134,8.67,0.048,12.995c0.109,2.596-0.866,3.336-3.335,3.211
	c-3.49-0.178-6.996-0.041-10.494-0.04C80.373,84.437,77.896,84.436,74.887,84.436z"/>
<g>
</g>
<g>
</g>
<g>
</g>
<g>
</g>
<g>
</g>
<g>
</g>
<g>
</g>
<g>
</g>
<g>
</g>
<g>
</g>
<g>
</g>
<g>
</g>
<g>
</g>
<g>
</g>
<g>
</g>
</svg>
